<svg xmlns="http://www.w3.org/2000/svg" width="17" height="20.182" viewBox="0 0 17 20.182">
  <path id="path4" d="M16.644,15.728a10.973,10.973,0,0,1-1.085,1.951,9.912,9.912,0,0,1-1.4,1.689,2.711,2.711,0,0,1-1.8.791,4.5,4.5,0,0,1-1.659-.4,4.761,4.761,0,0,0-1.786-.395,4.923,4.923,0,0,0-1.837.395,4.943,4.943,0,0,1-1.587.417,2.553,2.553,0,0,1-1.837-.812A10.408,10.408,0,0,1,2.2,17.619,12.1,12.1,0,0,1,.649,14.548,11.244,11.244,0,0,1,0,10.889a6.684,6.684,0,0,1,.878-3.5A5.148,5.148,0,0,1,2.716,5.533a4.945,4.945,0,0,1,2.485-.7,5.851,5.851,0,0,1,1.922.447,6.179,6.179,0,0,0,1.525.448A9.123,9.123,0,0,0,10.338,5.2a5.588,5.588,0,0,1,2.3-.408A4.879,4.879,0,0,1,16.458,6.8,4.251,4.251,0,0,0,14.2,10.665a4.261,4.261,0,0,0,1.4,3.21,4.6,4.6,0,0,0,1.4.917q-.168.488-.356.936ZM12.749.4a4.306,4.306,0,0,1-1.1,2.824A3.76,3.76,0,0,1,8.522,4.769,3.142,3.142,0,0,1,8.5,4.387,4.424,4.424,0,0,1,9.67,1.533,4.508,4.508,0,0,1,11.1.462,4.253,4.253,0,0,1,12.728,0a3.666,3.666,0,0,1,.021.4Z" fill="#fff"/>
</svg>
