<svg id="그룹_15376" data-name="그룹 15376" xmlns="http://www.w3.org/2000/svg" width="48" height="48" viewBox="0 0 48 48">
  <g id="패스_15835" data-name="패스 15835" transform="translate(29 38)" fill="none">
    <path d="M0,0H0Z" stroke="none"/>
    <path d="M 5.000002602173481e-06 -4.99999714520527e-06 L 1.500000325904693e-05 5.000002602173481e-06 L 5.000002602173481e-06 1.500000325904693e-05 L -4.99999714520527e-06 5.000002602173481e-06 L 5.000002602173481e-06 -4.99999714520527e-06 Z" stroke="none" fill="#e1e1e1"/>
  </g>
  <text id="트위터" transform="translate(23.191 30.199)" fill="#333" font-size="16" font-family="NotoSansCJKkr-Bold, Noto Sans CJK KR" font-weight="700"><tspan x="-22.08" y="0">트위터</tspan></text>
  <g id="그룹_15377" data-name="그룹 15377" transform="translate(0 0)">
    <path id="패스_16251" data-name="패스 16251" d="M7.68,0H40.32A7.68,7.68,0,0,1,48,7.68V40.32A7.68,7.68,0,0,1,40.32,48H7.68A7.68,7.68,0,0,1,0,40.32V7.68A7.68,7.68,0,0,1,7.68,0Z" fill="#f9e000"/>
    <path id="패스_16246" data-name="패스 16246" d="M199.318,193.223c-9.474,0-17.154,6.106-17.154,13.637,0,4.669,2.95,8.789,7.449,11.247l-1.24,6.648a.381.381,0,0,0,.585.388l7.368-4.854s1.971.207,2.991.207c9.473,0,17.153-6.106,17.153-13.637S208.791,193.223,199.318,193.223Z" transform="translate(-175.318 -184.504)" fill="#3c1e1e"/>
    <g id="그룹_15376-2" data-name="그룹 15376" transform="translate(11.268 18.436)">
      <path id="패스_16247" data-name="패스 16247" d="M214.062,251.31h-4.944a.847.847,0,0,0,0,1.695h1.607v5.969a.832.832,0,0,0,.242.584.812.812,0,0,0,.578.242h.18a.814.814,0,0,0,.577-.241.834.834,0,0,0,.242-.585V253h1.518a.847.847,0,0,0,0-1.695Z" transform="translate(-208.277 -251.191)" fill="#f9e000"/>
      <path id="패스_16248" data-name="패스 16248" d="M290.537,257.624h-2.3v-6.1a.913.913,0,1,0-1.825,0v6.865a.767.767,0,0,0,.764.77h3.359a.77.77,0,0,0,0-1.539Z" transform="translate(-273.183 -250.609)" fill="#f9e000"/>
      <path id="패스_16249" data-name="패스 16249" d="M324.538,257.9l-2.562-3.391,2.315-2.333a.813.813,0,0,0,0-1.143.8.8,0,0,0-1.136,0l-2.866,2.888v-2.395a.913.913,0,1,0-1.825,0V258.3a.913.913,0,1,0,1.825,0v-2.089l.521-.525,2.423,3.205a.81.81,0,0,0,1.142.163A.825.825,0,0,0,324.538,257.9Z" transform="translate(-299.806 -250.609)" fill="#f9e000"/>
      <path id="패스_16250" data-name="패스 16250" d="M247.178,258.123l-2.464-6.793-.008-.007a1.209,1.209,0,0,0-1.154-.715,1.411,1.411,0,0,0-.4.056,1.293,1.293,0,0,0-.342.155,1.135,1.135,0,0,0-.265.237,1.008,1.008,0,0,0-.126.2c-.03.063-.151.411-.19.518l-.042.113-.05.135-.058.156-.065.175-.071.192-.077.207-.082.221-.086.233-.09.244-.093.252-.1.26-.1.265-.1.269-.1.271-.1.272-.1.27-.1.267-.1.263-.1.257-.092.249-.089.24-.084.228-.08.216-.074.2-.069.185-.062.167-.055.148-.047.127-.038.1-.029.08-.02.053-.01.028a.826.826,0,0,0,.5,1.05.815.815,0,0,0,1.042-.5l.419-1.205h3.372l.419,1.205a.815.815,0,0,0,1.042.5A.825.825,0,0,0,247.178,258.123Zm-4.8-2.2,1.133-3.258c.013,0,.024,0,.037,0l1.132,3.254Z" transform="translate(-234.492 -250.609)" fill="#f9e000"/>
    </g>
  </g>
</svg>
