<svg id="그룹_15375" data-name="그룹 15375" xmlns="http://www.w3.org/2000/svg" width="48" height="48" viewBox="0 0 48 48">
  <g id="그룹_15370" data-name="그룹 15370" transform="translate(0 0)">
    <g id="그룹_15369" data-name="그룹 15369">
      <path id="패스_16241" data-name="패스 16241" d="M1247.147,250.114a24.151,24.151,0,0,1,4.646-.2c9.515.011,19.03-.013,28.546.011a8.6,8.6,0,0,1,8.128,8.353c.05,10.4.037,20.8.035,31.2a8.687,8.687,0,0,1-8.42,8.423c-10.469,0-20.938.013-31.407-.007a8.692,8.692,0,0,1-8.165-8.4c0-9.681-.014-19.364.03-29.046a24.045,24.045,0,0,1,.1-3.382A8.778,8.778,0,0,1,1247.147,250.114Zm-3.327,10.83c-.02,4.312-.01,8.625,0,12.94a8.184,8.184,0,0,0,7.513,7.734c3.3.079,6.605-.012,9.911.046.763,1.63,1.582,3.234,2.368,4.857.218.405.375.924.884,1.041.52-.1.678-.625.895-1.029.8-1.627,1.6-3.246,2.39-4.879,3.3-.036,6.6.036,9.9-.036a8.184,8.184,0,0,0,7.506-7.726c.017-3.44,0-6.88.013-10.321a14.556,14.556,0,0,0-.361-4.535,8.2,8.2,0,0,0-7.617-5.727q-12.715-.011-25.433,0A8.194,8.194,0,0,0,1243.821,260.944Z" transform="translate(-1240.505 -249.9)" fill="#57ac33"/>
    </g>
  </g>
  <g id="그룹_15374" data-name="그룹 15374" transform="translate(8.269 11.689)">
    <path id="패스_16242" data-name="패스 16242" d="M1281.135,277.481a3.65,3.65,0,0,1,2.135.655,4.178,4.178,0,0,1,1.508,3.485c-.01,2.245,0,4.488-.005,6.728q-1.232.012-2.459,0c-.037-2.243.047-4.49-.047-6.731a1.683,1.683,0,0,0-1.132-1.7C1281.12,279.111,1281.13,278.3,1281.135,277.481Z" transform="translate(-1272.188 -277.481)" fill="#f36b10"/>
    <g id="그룹_15371" data-name="그룹 15371" transform="translate(0 0.242)">
      <path id="패스_16243" data-name="패스 16243" d="M1260.025,288.662c.037-3.536-.042-7.076.045-10.61.82.025,1.638.015,2.456.025-.03,1.319.015,2.643-.032,3.964a3.265,3.265,0,0,1,4.508.042,4.238,4.238,0,0,1-.173,6.053,3.087,3.087,0,0,1-4.318-.206c.005.188.01.562.015.749C1261.693,288.687,1260.858,288.7,1260.025,288.662Zm3.371-5.132a1.67,1.67,0,0,0-.094,2.985,1.621,1.621,0,1,0,.094-2.985Z" transform="translate(-1260.025 -278.052)" fill="#f36b10"/>
    </g>
    <g id="그룹_15372" data-name="그룹 15372" transform="translate(14.236 3.346)">
      <path id="패스_16244" data-name="패스 16244" d="M1296.42,285.581a4.8,4.8,0,0,1,4.576.943,3.877,3.877,0,0,1-.3,5.725c-2.084,1.579-5.776,1.064-6.787-1.533A3.843,3.843,0,0,1,1296.42,285.581Zm.951,2.125a1.671,1.671,0,0,0-.271,2.993,1.619,1.619,0,1,0,.271-2.993Z" transform="translate(-1293.633 -285.376)" fill="#f36b10"/>
    </g>
    <g id="그룹_15373" data-name="그룹 15373" transform="translate(23.947 3.342)">
      <path id="패스_16245" data-name="패스 16245" d="M1318.2,285.965a3.06,3.06,0,0,1,4.043.341c0-.17,0-.511,0-.681.825-.008,1.654-.008,2.481,0,0,2.337.005,4.673,0,7.01a4.209,4.209,0,0,1-1.505,3.391,4.873,4.873,0,0,1-3.215.72c0-.763,0-1.524,0-2.287a2.537,2.537,0,0,0,1.715-.429,2.787,2.787,0,0,0,.556-1.9,3.389,3.389,0,0,1-4.56.029A4.172,4.172,0,0,1,1318.2,285.965Zm1.938,1.708a1.678,1.678,0,0,0-.19,2.959,1.624,1.624,0,1,0,.19-2.959Z" transform="translate(-1316.558 -285.365)" fill="#f36b10"/>
    </g>
  </g>
</svg>
